<svg width="129" height="51" viewBox="0 0 129 51" fill="none" xmlns="http://www.w3.org/2000/svg">
<path d="M0.32 20.56V27.536H18.496V20.56H0.32ZM5.376 10.32V50H13.376V10.32H5.376ZM20.9245 35.28C20.9245 38.3093 21.6285 40.9973 23.0365 43.344C24.4872 45.648 26.4285 47.44 28.8605 48.72C31.3352 50 34.1298 50.64 37.2445 50.64C40.3592 50.64 43.1325 50 45.5645 48.72C48.0392 47.44 49.9805 45.648 51.3885 43.344C52.8392 40.9973 53.5645 38.3093 53.5645 35.28C53.5645 32.208 52.8392 29.52 51.3885 27.216C49.9805 24.912 48.0392 23.12 45.5645 21.84C43.1325 20.56 40.3592 19.92 37.2445 19.92C34.1298 19.92 31.3352 20.56 28.8605 21.84C26.4285 23.12 24.4872 24.912 23.0365 27.216C21.6285 29.52 20.9245 32.208 20.9245 35.28ZM29.3725 35.28C29.3725 33.616 29.7138 32.144 30.3965 30.864C31.1218 29.584 32.0818 28.6027 33.2765 27.92C34.4712 27.2373 35.7938 26.896 37.2445 26.896C38.6952 26.896 40.0178 27.2373 41.2125 27.92C42.4072 28.6027 43.3458 29.584 44.0285 30.864C44.7538 32.144 45.1165 33.616 45.1165 35.28C45.1165 36.944 44.7538 38.416 44.0285 39.696C43.3458 40.9333 42.4072 41.9147 41.2125 42.64C40.0178 43.3227 38.6952 43.664 37.2445 43.664C35.7938 43.664 34.4712 43.3227 33.2765 42.64C32.0818 41.9147 31.1218 40.9333 30.3965 39.696C29.7138 38.416 29.3725 36.944 29.3725 35.28Z" fill="#3568EE"/>
<path d="M81.9915 0.079998V50H90.3115V0.079998H81.9915ZM57.7995 35.28C57.7995 38.5227 58.4608 41.296 59.7835 43.6C61.1062 45.904 62.8555 47.6533 65.0315 48.848C67.2075 50.0427 69.5115 50.64 71.9435 50.64C74.4182 50.64 76.5942 50.0213 78.4715 48.784C80.3915 47.5467 81.8848 45.776 82.9515 43.472C84.0608 41.168 84.6155 38.4373 84.6155 35.28C84.6155 32.08 84.0608 29.3493 82.9515 27.088C81.8848 24.784 80.3915 23.0133 78.4715 21.776C76.5942 20.5387 74.4182 19.92 71.9435 19.92C69.5115 19.92 67.2075 20.5173 65.0315 21.712C62.8555 22.9067 61.1062 24.656 59.7835 26.96C58.4608 29.2213 57.7995 31.9947 57.7995 35.28ZM66.3755 35.28C66.3755 33.5307 66.7382 32.016 67.4635 30.736C68.1888 29.456 69.1702 28.4747 70.4075 27.792C71.6448 27.1093 72.9675 26.768 74.3755 26.768C75.6128 26.768 76.8075 27.1093 77.9595 27.792C79.1542 28.432 80.1142 29.392 80.8395 30.672C81.6075 31.952 81.9915 33.488 81.9915 35.28C81.9915 37.072 81.6075 38.608 80.8395 39.888C80.1142 41.168 79.1542 42.1493 77.9595 42.832C76.8075 43.472 75.6128 43.792 74.3755 43.792C72.9675 43.792 71.6448 43.4507 70.4075 42.768C69.1702 42.0853 68.1888 41.104 67.4635 39.824C66.7382 38.544 66.3755 37.0293 66.3755 35.28ZM96.2995 35.28C96.2995 38.3093 97.0035 40.9973 98.4115 43.344C99.8622 45.648 101.804 47.44 104.236 48.72C106.71 50 109.505 50.64 112.62 50.64C115.734 50.64 118.508 50 120.94 48.72C123.414 47.44 125.356 45.648 126.764 43.344C128.214 40.9973 128.94 38.3093 128.94 35.28C128.94 32.208 128.214 29.52 126.764 27.216C125.356 24.912 123.414 23.12 120.94 21.84C118.508 20.56 115.734 19.92 112.62 19.92C109.505 19.92 106.71 20.56 104.236 21.84C101.804 23.12 99.8622 24.912 98.4115 27.216C97.0035 29.52 96.2995 32.208 96.2995 35.28ZM104.748 35.28C104.748 33.616 105.089 32.144 105.772 30.864C106.497 29.584 107.457 28.6027 108.652 27.92C109.846 27.2373 111.169 26.896 112.62 26.896C114.07 26.896 115.393 27.2373 116.588 27.92C117.782 28.6027 118.721 29.584 119.404 30.864C120.129 32.144 120.492 33.616 120.492 35.28C120.492 36.944 120.129 38.416 119.404 39.696C118.721 40.9333 117.782 41.9147 116.588 42.64C115.393 43.3227 114.07 43.664 112.62 43.664C111.169 43.664 109.846 43.3227 108.652 42.64C107.457 41.9147 106.497 40.9333 105.772 39.696C105.089 38.416 104.748 36.944 104.748 35.28Z" fill="black"/>
</svg>
